<svg
  xmlns="http://www.w3.org/2000/svg"
  viewBox="0 0 64 64"
  width="64"
  height="64"
  aria-label="Open color picker"
  role="img"
>
  <defs>
    <filter id="shadow" x="-20%" y="-20%" width="140%" height="140%">
      <feDropShadow dx="0" dy="1" stdDeviation="1.2" flood-opacity="0.18" />
    </filter>
  </defs>

  <g filter="url(#shadow)">
    <path d="M32 32 L32 6 A26 26 0 0 1 45 9.483 Z" fill="#ff0040" />
    <path d="M32 32 L45 9.483 A26 26 0 0 1 54.517 19 Z" fill="#ff8000" />
    <path d="M32 32 L54.517 19 A26 26 0 0 1 58 32 Z" fill="#ffd500" />
    <path d="M32 32 L58 32 A26 26 0 0 1 54.517 45 Z" fill="#7fff00" />
    <path d="M32 32 L54.517 45 A26 26 0 0 1 45 54.517 Z" fill="#00d46a" />
    <path d="M32 32 L45 54.517 A26 26 0 0 1 32 58 Z" fill="#00cfff" />
    <path d="M32 32 L32 58 A26 26 0 0 1 19 54.517 Z" fill="#0066ff" />
    <path d="M32 32 L19 54.517 A26 26 0 0 1 9.483 45 Z" fill="#5a00ff" />
    <path d="M32 32 L9.483 45 A26 26 0 0 1 6 32 Z" fill="#aa00ff" />
    <path d="M32 32 L6 32 A26 26 0 0 1 9.483 19 Z" fill="#ff00bf" />
    <path d="M32 32 L9.483 19 A26 26 0 0 1 19 9.483 Z" fill="#ff006e" />
    <path d="M32 32 L19 9.483 A26 26 0 0 1 32 6 Z" fill="#ff0033" />

    <circle
      cx="32"
      cy="32"
      r="26"
      fill="none"
      stroke="#1f2328"
      stroke-opacity="0.12"
      stroke-width="1"
    />
  </g>
</svg>
